<svg version="1.1" id="Layer_1" xmlns="http://www.w3.org/2000/svg" xmlns:xlink="http://www.w3.org/1999/xlink" x="0px" y="0px"
	 width="100%" viewBox="0 0 512 512" enable-background="new 0 0 512 512" xml:space="preserve">
<path fill="#E6EFFD" opacity="1.000000" stroke="none" 
	d="
M1.248299,264.245728 
	C1.000000,188.645767 1.000000,113.291542 1.000000,37.468658 
	C3.004600,31.046795 5.474819,25.376131 9.267120,20.249851 
	C16.221834,10.848749 25.137812,4.472900 36.727753,1.241926 
	C132.354233,1.000000 227.708450,1.000000 323.531342,1.000000 
	C324.340759,1.573001 324.043732,0.763338 324.347107,1.356982 
	C326.017242,4.625108 320.266937,15.159503 316.792847,14.670754 
	C311.801666,13.968569 309.184357,15.900400 308.257416,20.597235 
	C307.694946,23.447136 305.772064,24.461908 303.185669,24.225615 
	C300.894073,24.016254 299.294312,24.369022 298.842377,26.971968 
	C298.667816,27.977251 297.843445,28.723869 296.960602,29.199402 
	C293.895905,30.850183 292.431946,33.371044 292.287628,36.847450 
	C292.169800,39.686474 290.745850,40.954346 287.688385,40.453098 
	C283.961182,39.842052 281.510681,41.531651 279.751160,44.967468 
	C278.421326,47.564274 277.187500,52.051815 272.788086,47.659424 
	C271.878235,46.751053 271.452972,48.057034 271.013428,48.601360 
	C269.967773,49.896294 268.871185,51.135006 267.313141,52.445885 
	C264.301636,53.848122 261.432678,53.453945 258.624512,53.458817 
	C222.503082,53.521519 196.225281,75.645607 189.950668,111.299805 
	C189.662781,112.935616 189.516510,114.606178 188.742371,116.507843 
	C186.174393,118.194664 184.404205,120.026382 183.576324,122.754150 
	C182.689911,125.674835 181.031174,126.997383 177.592178,126.342003 
	C171.987671,125.273941 170.136063,126.880882 167.104263,131.664261 
	C163.691208,137.049149 160.233047,142.631790 153.961960,145.386642 
	C153.504745,145.587494 152.819794,145.772705 152.712189,146.159912 
	C150.931305,152.568085 144.406082,154.522675 140.679276,159.081253 
	C139.587189,160.417099 138.422577,161.953583 136.661163,161.649963 
	C131.064392,160.685257 129.190018,164.944412 126.681549,168.369904 
	C126.089104,169.178940 125.795662,170.156082 125.413345,171.080109 
	C124.703728,172.795181 124.009140,174.688354 121.670097,174.420303 
	C119.253662,174.143387 119.712280,171.808044 119.067780,169.702545 
	C116.813850,173.757874 114.770836,177.353088 112.711601,180.934479 
	C111.591026,182.883362 110.320648,184.194473 107.931618,183.274567 
	C105.567871,182.364349 104.741905,183.200607 104.356689,185.631241 
	C103.263252,192.530594 101.167282,194.266190 94.219826,194.117722 
	C92.744576,194.086197 91.783272,194.541840 91.540489,195.708649 
	C89.840950,203.876251 82.547195,203.694290 76.753922,205.737778 
	C75.987953,206.007935 74.590660,205.737549 74.435158,206.350433 
	C72.456680,214.148468 62.264343,213.760880 59.856079,221.070831 
	C59.708065,221.520126 59.154869,221.813766 58.946609,222.248978 
	C55.804588,228.815201 51.360466,233.196136 43.325409,232.298660 
	C41.268311,232.068893 40.461510,233.109329 41.503407,235.476624 
	C43.159184,239.238739 42.304359,240.989410 38.407764,241.147278 
	C33.218533,241.357529 30.434143,243.359528 29.694836,248.669220 
	C29.248011,251.878296 26.769381,252.775833 24.120651,250.882309 
	C20.939816,248.608398 20.522772,250.438400 20.283506,253.012222 
	C20.237238,253.509918 20.175430,254.006271 20.137995,254.504776 
	C19.604071,261.614471 19.607224,261.630371 12.708610,262.872131 
	C11.325214,263.121124 10.211910,263.790863 9.251485,264.739136 
	C6.565248,267.391357 3.997445,267.205353 1.248299,264.245728 
z"/>
<path fill="#E0ECFC" opacity="1.000000" stroke="none" 
	d="
M1.000000,264.468658 
	C4.289608,265.436615 7.228594,266.256744 9.753051,262.317017 
	C10.780955,260.712860 13.195930,260.825897 15.313923,261.550415 
	C17.986547,262.464722 19.414906,260.774139 18.779942,258.444824 
	C18.025721,255.677994 19.355440,253.206573 19.042448,250.576828 
	C18.878143,249.196335 19.267822,247.843033 20.768353,247.318787 
	C22.332970,246.772141 23.270826,247.726471 23.979610,248.974426 
	C24.685953,250.218063 25.610010,251.229507 27.162487,250.739838 
	C28.794373,250.225128 28.409494,248.937866 28.453619,247.517242 
	C28.603308,242.697708 31.507849,240.124039 36.369434,240.000092 
	C42.117641,239.853546 42.019253,239.907150 39.365959,235.133163 
	C38.332272,233.273270 37.185261,230.747406 41.258568,231.015259 
	C44.372826,231.220047 47.267658,229.264236 50.585426,230.512711 
	C52.384937,231.189865 53.667789,229.194168 54.082352,227.640015 
	C55.421143,222.620972 59.818600,219.715164 62.219082,215.434845 
	C62.974728,214.087418 64.596115,212.463547 65.939713,212.348419 
	C70.242905,211.979675 72.392349,210.186172 72.146088,205.743927 
	C72.119766,205.269119 73.057816,204.265564 73.198799,204.325790 
	C77.491493,206.159866 80.521332,200.571945 84.763817,202.388199 
	C86.325371,203.056702 86.696060,202.004166 87.226479,200.841888 
	C88.115898,198.892975 89.363800,197.103729 90.205399,195.137924 
	C91.286263,192.613266 91.459991,189.006348 95.311279,193.279816 
	C96.693497,194.813553 102.599602,190.633850 102.939163,187.969635 
	C103.127388,186.492859 102.923546,184.970322 103.031281,183.478149 
	C103.238739,180.604828 104.292801,179.265518 107.084663,181.449326 
	C109.402374,183.262207 110.616997,182.713974 111.679543,179.892487 
	C112.944893,176.532501 115.662117,173.918396 116.667503,170.250809 
	C117.302750,167.933456 119.832176,167.665024 122.029396,168.237930 
	C122.985641,169.792465 121.530067,170.040298 120.987663,170.702774 
	C120.017990,171.887115 120.146011,172.907883 121.524887,173.487259 
	C122.703217,173.982376 123.614845,173.096451 123.728447,172.111084 
	C124.096100,168.922119 126.333054,166.892670 127.848801,164.360367 
	C129.958664,160.835464 132.095688,159.216980 136.248688,160.489532 
	C138.496552,161.178299 139.255188,159.145386 140.054611,157.424652 
	C141.064682,155.250534 141.729218,152.883209 145.333755,153.703415 
	C147.777435,154.259445 148.404861,151.508423 148.903946,149.657318 
	C149.742813,146.546005 151.372696,144.828384 154.533585,143.482620 
	C159.700714,141.282639 163.045837,136.279648 165.588989,131.745224 
	C169.153671,125.389435 171.522339,123.318008 178.960266,125.371994 
	C180.759216,125.868767 181.389099,125.163399 181.887924,123.726143 
	C182.585159,121.717163 183.442642,119.756325 184.019073,117.714890 
	C184.660141,115.444550 186.016739,116.748955 187.511749,116.951813 
	C189.462799,118.115425 189.366638,119.861412 189.415924,121.491585 
	C190.504196,157.490784 217.757080,183.416687 250.902924,186.606049 
	C251.732285,186.685852 252.546051,186.832886 253.654572,187.311752 
	C255.654938,189.295059 255.923691,191.708282 256.547028,193.903839 
	C257.394867,196.890182 256.392975,199.068848 253.047852,199.867615 
	C248.246719,201.014069 244.210861,202.895416 242.118607,208.110001 
	C240.848465,211.275604 237.100464,212.384079 233.910355,213.327057 
	C230.216370,214.419006 227.858154,216.512375 226.850067,220.275177 
	C225.969391,223.562469 223.904846,224.933929 220.253052,224.995789 
	C214.606064,225.091461 204.518860,234.808044 204.021332,240.505753 
	C203.604782,245.276123 198.768051,245.145691 196.671616,247.994080 
	C194.776535,250.568893 194.085632,254.980194 189.036957,253.332916 
	C186.488007,252.501236 186.658234,254.862823 186.151901,256.335785 
	C184.586517,260.889618 181.939926,263.001038 177.307556,262.700378 
	C175.019424,262.551849 173.389740,263.185730 172.055832,264.805725 
	C168.913361,268.622162 164.943634,271.754578 162.614059,276.244781 
	C161.374557,278.633942 158.980789,278.270294 156.896835,278.479828 
	C154.592453,278.711578 153.283752,279.184784 153.800842,282.142334 
	C154.480331,286.028839 152.066605,288.866150 148.571304,289.547821 
	C138.631088,291.486420 132.833923,299.588684 125.007607,304.636139 
	C124.317192,305.081421 123.398567,305.711121 123.459869,306.503601 
	C124.139069,315.284210 115.913261,313.960144 111.523216,316.846832 
	C110.247223,317.685883 108.290398,317.631927 107.725304,319.470184 
	C106.514732,323.408142 103.104752,324.622711 100.012589,326.649078 
	C95.798569,329.410614 90.705849,331.056580 87.587234,335.446930 
	C86.522491,336.945862 84.893028,338.023529 83.147987,338.579620 
	C79.749672,339.662567 77.834213,341.968384 75.927544,344.939056 
	C73.656235,348.477936 70.027702,351.080414 66.279419,353.081299 
	C64.450912,354.057404 63.411739,354.668091 63.556709,357.028534 
	C63.850464,361.811523 63.390511,362.120544 59.105865,360.330994 
	C56.050873,359.055023 54.451603,360.266449 54.164173,363.059967 
	C53.837727,366.232727 52.011028,367.460907 49.404442,368.723328 
	C43.492508,371.586517 39.677162,377.193573 34.343155,380.884705 
	C32.900936,381.882721 32.824570,383.737823 32.753494,385.446899 
	C32.598938,389.163239 30.334009,389.874420 27.752079,388.048279 
	C24.549311,385.782990 23.806053,387.313629 23.197573,390.095245 
	C22.620853,392.731689 20.925848,394.208038 18.216827,394.021393 
	C13.898548,393.723877 11.959011,396.248840 10.593676,399.814728 
	C8.661112,404.862030 6.544338,405.438812 1.252095,402.245605 
	C1.000000,356.312439 1.000000,310.624878 1.000000,264.468658 
z"/>
<path fill="#CBE4F8" opacity="1.000000" stroke="none" 
	d="
M216.246124,512.736450 
	C180.645767,513.000000 145.291550,513.000000 109.468658,513.000000 
	C109.944962,507.837982 112.557281,503.671509 116.902657,500.796753 
	C123.848129,496.201874 130.876083,491.775909 135.598083,484.599487 
	C136.786194,482.793762 138.565186,481.189056 140.483414,480.403168 
	C150.864273,476.150360 157.167053,466.863068 165.732727,460.407928 
	C170.078079,457.133209 174.245758,453.581848 178.959229,450.807831 
	C179.822052,450.300110 180.894470,449.964325 181.318710,449.041901 
	C185.164078,440.680817 194.404663,437.989685 199.946167,431.315948 
	C202.127823,428.688477 206.167862,427.867065 209.213745,425.809113 
	C212.199112,423.792084 214.603638,421.691071 216.597443,418.784302 
	C217.900314,416.884857 219.501083,415.098236 221.527649,413.881348 
	C229.813263,408.906097 236.297485,401.699951 243.897156,395.872925 
	C247.172623,393.361481 250.148407,390.448273 254.658325,389.534485 
	C256.927673,391.771912 255.841095,394.082458 255.315674,396.278137 
	C250.898911,414.735046 241.544601,430.801697 230.979919,446.270874 
	C229.859421,447.911530 228.579803,449.442780 227.732513,450.830017 
	C239.897095,440.549438 250.928818,428.603973 262.400177,417.117401 
	C280.821289,398.671875 295.335205,377.485321 305.906189,353.631989 
	C306.724915,351.784576 307.629486,350.028961 309.455170,348.451599 
	C320.140137,343.043793 328.267334,334.856171 336.994385,327.474213 
	C339.283661,325.537781 341.288208,323.290436 344.290863,322.405518 
	C344.925842,322.218384 345.720032,321.979553 346.009674,321.445404 
	C348.978119,315.971405 355.308014,314.720520 359.416656,310.695099 
	C360.008209,310.115479 360.828186,309.713959 361.248688,309.013611 
	C366.754547,299.843079 376.803650,295.895355 384.258698,288.970490 
	C384.980591,288.299927 386.153351,288.013184 386.644897,287.194580 
	C391.461792,279.172455 400.665558,276.328796 406.899902,269.970703 
	C408.751984,268.081818 410.975220,266.565796 412.419617,264.264740 
	C413.328979,262.816132 414.563354,261.446198 416.249847,261.268127 
	C420.683777,260.799866 423.336182,257.926788 425.802673,254.730698 
	C428.282227,251.517685 432.312531,250.004303 434.872498,247.376862 
	C438.853394,243.290970 443.803955,240.321304 447.411285,236.196060 
	C451.512878,231.505478 457.596985,230.119461 461.669037,225.639572 
	C463.295532,223.850174 465.466461,222.516479 466.733917,220.297455 
	C467.396881,219.136658 468.256622,217.920929 469.444397,217.421539 
	C473.599426,215.674576 476.190491,212.273102 479.122131,209.113892 
	C482.007721,206.004288 484.796753,202.623016 489.554779,201.938141 
	C491.359863,201.678299 492.257507,199.592911 493.392639,198.167480 
	C497.518829,192.985992 503.116730,189.678940 508.620422,186.266434 
	C509.743286,185.570206 511.028381,185.091614 512.713501,185.776367 
	C513.000000,212.354233 513.000000,238.708450 513.000000,265.531342 
	C506.946472,273.600220 499.946014,280.113953 491.544281,285.100464 
	C488.971985,286.627197 486.709808,288.694031 484.592285,290.788849 
	C477.741058,297.566772 469.762146,303.029785 462.983521,309.955017 
	C459.391815,313.624451 454.959015,316.784332 450.777222,319.907227 
	C435.485870,331.326508 421.814453,344.703796 406.400879,355.975891 
	C402.030579,359.171906 398.192535,362.962341 393.266663,365.568634 
	C389.686218,367.463074 386.805267,370.686829 384.507080,374.299561 
	C380.370483,380.802277 373.735626,384.396515 367.450500,388.391205 
	C360.744171,392.653595 354.485168,397.557281 348.951752,403.239105 
	C347.089996,405.150818 345.570312,407.280731 343.051422,408.408508 
	C341.829376,408.955658 340.648132,409.692230 339.844696,410.754974 
	C334.965973,417.208191 328.261932,421.397003 321.595398,425.646698 
	C320.044342,426.635437 318.422882,427.682587 317.535645,429.294128 
	C315.570892,432.862701 312.947784,435.350159 308.731018,435.854401 
	C307.914459,435.952087 307.051025,436.466400 306.661346,437.168060 
	C303.741943,442.425385 298.627533,445.728668 294.270355,449.264648 
	C288.020325,454.336609 281.719818,459.470398 275.295715,464.208588 
	C270.789215,467.532379 266.791840,471.423615 262.515320,474.918610 
	C258.397034,478.284241 254.095184,481.407288 249.924423,484.692932 
	C248.062515,486.159698 246.292877,487.548004 245.114624,489.637024 
	C243.053986,493.290466 240.247452,495.953644 235.826202,496.424316 
	C234.023682,496.616180 232.632645,497.589874 232.041687,499.291382 
	C230.777222,502.932159 228.192703,504.863586 224.609024,506.026581 
	C221.188248,507.136688 218.751419,509.756775 216.246124,512.736450 
z"/>
<path fill="#DDEAFC" opacity="1.000000" stroke="none" 
	d="
M1.000000,402.468658 
	C5.195134,403.303345 8.739724,404.402985 9.906229,397.845062 
	C10.449999,394.788116 12.951007,390.984039 17.990713,392.752167 
	C20.283649,393.556641 21.603951,392.268158 22.022274,389.721222 
	C23.048889,383.470734 23.730116,383.228210 28.187168,387.111664 
	C29.050543,387.863953 29.944204,388.138184 30.904100,387.692047 
	C31.871862,387.242218 31.521933,386.362762 31.327393,385.535553 
	C30.564808,382.292877 31.989235,380.094910 34.751286,378.551117 
	C39.214340,376.056610 41.899235,371.453888 46.318027,368.826019 
	C47.564564,368.084717 48.471741,367.002625 50.113152,366.920044 
	C52.105453,366.819794 53.401291,365.618561 52.638977,363.605225 
	C51.796696,361.380646 52.646069,360.472260 54.349319,359.170502 
	C56.643314,357.417328 58.365601,356.160980 60.162186,359.552551 
	C60.532860,360.252258 61.322647,360.748779 62.285393,360.467407 
	C63.230183,359.592438 62.789181,358.643494 62.383915,357.738251 
	C60.711983,354.003845 61.038975,351.578400 65.994240,351.932648 
	C67.251663,352.022522 68.537445,351.381470 68.683693,350.147369 
	C68.988640,347.574066 70.453812,346.878021 72.728485,346.811493 
	C73.289253,346.795074 74.260849,346.232941 74.318985,345.819733 
	C75.147606,339.930389 79.785019,338.209534 84.372948,336.326080 
	C86.090599,335.620972 87.459824,334.426636 88.050827,332.484894 
	C88.275581,331.746460 88.994087,330.517944 89.366638,330.560944 
	C94.855782,331.194183 96.592690,324.629150 101.783867,324.269867 
	C103.868774,324.125580 105.918205,322.037231 106.297165,318.981445 
	C106.610390,316.455719 108.038208,314.132294 111.512070,315.659515 
	C112.972588,316.301605 114.132507,315.543213 114.839203,314.248016 
	C115.632278,312.794556 116.792061,312.263641 118.405083,311.932770 
	C120.660248,311.470062 125.399521,311.962921 120.803841,307.476349 
	C119.764664,306.461853 121.383347,305.783539 122.101364,305.351990 
	C127.714912,301.978058 132.188721,297.119171 137.142944,292.990509 
	C140.620605,290.092377 144.494156,290.070831 147.986908,288.304230 
	C153.350311,285.591522 154.157501,283.640747 150.512939,278.508759 
	C151.366348,278.275391 152.137314,277.837097 152.864410,277.900665 
	C160.663528,278.582336 163.546783,272.099304 167.511276,267.534729 
	C169.354187,265.412872 171.699783,263.779053 173.242126,261.374847 
	C173.913544,260.328247 174.911850,260.270050 176.280548,260.755890 
	C180.966476,262.419189 184.642960,259.972260 184.931580,254.841980 
	C185.148148,250.992310 186.623611,249.784744 189.821564,251.966553 
	C192.097839,253.519531 192.505356,252.326797 193.351288,250.602020 
	C194.895569,247.453415 196.801544,244.600113 200.588394,243.651321 
	C201.641235,243.387558 203.238541,242.606720 202.755081,241.325485 
	C200.436081,235.179718 205.844437,232.927597 208.881775,230.094788 
	C211.056229,228.066788 214.010056,226.614349 216.195816,224.335129 
	C217.186096,223.302490 218.497284,222.595901 219.794037,223.186172 
	C223.646622,224.939835 225.238861,222.790421 225.579498,219.609192 
	C226.216248,213.662399 231.044327,212.729446 235.213470,211.222794 
	C238.850983,209.908264 241.120422,208.346115 242.333618,204.112778 
	C243.403503,200.379456 248.477219,198.834137 251.826645,198.496048 
	C256.554840,198.018753 256.467072,196.480743 254.833725,193.367645 
	C254.078934,191.929016 254.035370,190.527283 253.997345,188.651505 
	C254.555466,187.171005 255.558014,187.058899 256.973450,187.147919 
	C258.873871,186.651077 259.165619,192.619583 261.725250,187.758698 
	C263.704926,186.401779 265.695038,186.125107 267.653290,185.764191 
	C291.918976,181.291763 308.845947,167.532196 318.986389,145.194946 
	C319.535095,143.986298 319.881683,142.678741 321.322998,141.661560 
	C322.838135,141.390076 323.916168,141.234268 324.323792,139.770447 
	C324.826599,137.964706 326.250519,136.775238 328.020203,136.982361 
	C331.499359,137.389526 332.946106,136.023224 333.922791,132.687073 
	C335.162506,128.452454 339.612793,127.197464 343.044922,125.505035 
	C345.640106,124.225327 346.034576,123.203697 345.467377,120.647232 
	C344.381989,115.755348 346.198273,113.213043 351.165039,113.003555 
	C355.422424,112.823982 358.949554,110.178200 363.183075,110.061790 
	C364.550964,110.024178 365.176270,108.478912 366.084991,107.513260 
	C369.864716,103.496834 375.262054,101.292519 377.616638,95.497673 
	C378.567108,93.158432 383.217102,93.132805 385.303680,90.414108 
	C386.463715,88.902718 387.799530,87.897072 386.511597,85.737450 
	C385.595551,84.201378 385.841675,82.448647 387.303253,81.196777 
	C388.932129,79.801613 390.441803,80.667168 391.802368,81.733162 
	C394.031525,83.479691 395.368500,82.821732 396.214905,80.304176 
	C396.587097,79.197083 397.299103,78.241669 397.959869,77.280434 
	C400.649963,73.367065 401.787933,73.433159 404.590271,77.681595 
	C406.724518,75.179527 409.100098,72.899193 410.729980,69.991859 
	C411.519226,68.584114 412.947083,68.037460 414.512115,67.877548 
	C416.803406,67.643463 418.281464,66.543411 418.323303,64.097290 
	C418.370483,61.337975 420.127777,60.028374 422.462524,60.054050 
	C426.590576,60.099445 427.958832,57.661121 428.642670,54.257706 
	C429.050507,52.227962 429.984985,50.486942 431.680420,49.245346 
	C433.433167,47.961792 435.500031,47.286549 437.145477,48.973305 
	C439.470520,51.356731 440.415833,50.092941 441.348541,47.895950 
	C441.608551,47.283424 442.204102,46.676361 442.134216,46.080399 
	C441.314087,39.086536 446.500092,38.104931 451.348999,36.820858 
	C453.652161,36.210941 455.902832,35.511654 457.154053,33.296597 
	C458.550507,30.824448 460.053589,28.840981 463.408356,29.615036 
	C465.032654,29.989805 465.671082,28.428864 466.381165,27.366039 
	C467.859772,25.153048 469.134186,22.818052 471.501312,21.332010 
	C473.514374,20.068241 472.859985,18.196280 472.404633,16.390499 
	C472.067841,15.054899 471.969116,13.658162 473.260254,12.754928 
	C474.508789,11.881502 476.002197,12.092737 476.975616,13.047230 
	C480.343658,16.349766 482.685181,14.985639 484.966949,11.726529 
	C486.007812,10.239814 487.457977,9.035877 489.574493,8.242823 
	C491.921600,7.938823 493.400299,9.038486 494.831665,10.145333 
	C503.267090,16.668249 509.498016,24.669039 511.470764,35.741745 
	C506.476685,39.226479 501.453064,42.144279 497.891693,46.889008 
	C497.287842,47.693546 496.550720,48.461971 495.588348,48.752571 
	C486.178650,51.594105 481.933044,60.433006 475.176270,66.346786 
	C474.076447,67.309402 473.256012,68.580750 471.936584,69.380592 
	C462.048370,75.374695 452.568481,81.889595 444.802734,90.611382 
	C442.698334,92.974823 440.282196,94.974693 437.557129,96.674728 
	C432.933746,99.559006 428.748596,102.923714 424.694427,106.693748 
	C420.606567,110.495041 416.640778,114.379440 412.631348,118.259346 
	C409.290710,121.492027 404.058167,122.335022 400.522614,125.865707 
	C398.792542,127.593414 396.728729,129.077713 394.949097,130.823273 
	C388.105560,137.535690 381.109833,144.062012 372.843933,149.047821 
	C372.272552,149.392471 371.618622,149.677643 371.233490,150.210693 
	C365.771545,157.769882 357.415344,162.035141 350.554565,167.984238 
	C346.569366,171.439926 343.198029,175.768890 339.158478,178.561279 
	C333.418030,182.529404 328.563904,187.590469 322.581726,191.166260 
	C318.699066,193.487061 315.800171,197.094299 312.228119,199.697891 
	C306.382050,203.958969 301.248444,208.832245 296.028778,213.792969 
	C289.743958,219.765991 282.670898,225.023560 275.032501,229.348404 
	C273.179352,230.397659 272.517487,232.389832 271.167053,234.313889 
	C268.662170,235.796402 266.369476,235.121475 264.063446,234.890686 
	C248.461182,233.329254 233.418854,235.290680 219.803589,243.449738 
	C201.380386,254.489944 191.841049,271.279510 189.568268,292.420868 
	C189.408676,293.905365 189.466736,295.413452 188.954681,297.234192 
	C188.613571,298.046326 188.426422,298.593719 188.021942,298.838928 
	C180.790558,303.222626 175.499771,310.023895 168.619766,314.714691 
	C162.807541,318.677521 157.163971,322.601135 152.838715,328.200897 
	C152.635117,328.464478 152.436508,328.794037 152.148499,328.914185 
	C145.452469,331.707550 141.551254,338.194763 135.113586,341.517273 
	C129.328049,344.503204 125.401985,350.033417 120.890610,354.674805 
	C119.353989,356.255737 118.000015,357.855499 115.769791,358.422211 
	C114.626228,358.712799 113.379448,359.171844 112.852356,360.217072 
	C110.242798,365.391754 105.184601,367.404175 100.547241,369.958984 
	C96.993195,371.917023 93.785057,374.200439 91.854462,377.935120 
	C91.318031,378.972870 90.454926,379.845245 89.418373,380.398560 
	C82.698730,383.985504 77.564407,389.461182 72.250183,394.723694 
	C70.451057,396.505310 68.311943,397.784790 66.102509,398.961395 
	C64.331764,399.904327 62.421291,400.772736 61.213406,402.369781 
	C56.307739,408.856140 49.284634,412.751251 42.952362,417.474670 
	C37.355057,421.649841 33.111465,427.269135 27.350313,431.339722 
	C23.664574,433.943909 20.162428,437.429565 16.647104,439.904633 
	C12.298048,442.966827 8.591158,446.429230 4.829381,450.011780 
	C3.951396,450.847961 2.747442,451.021881 1.279686,450.229462 
	C1.000000,434.312439 1.000000,418.624878 1.000000,402.468658 
z"/>
<path fill="#BCDFF5" opacity="1.000000" stroke="none" 
	d="
M512.724854,330.763672 
	C513.000000,379.354218 513.000000,427.708466 513.000000,476.531342 
	C510.995331,482.953186 508.525269,488.623901 504.732880,493.750122 
	C497.778076,503.151154 488.862213,509.527130 477.272247,512.758057 
	C415.312439,513.000000 353.624878,513.000000 291.468658,513.000000 
	C289.740204,511.247375 290.946442,510.143707 292.171112,509.292419 
	C298.815247,504.673859 303.806793,497.771576 311.851868,495.078094 
	C313.121338,494.653076 314.105103,493.681427 314.977051,492.650604 
	C320.156799,486.526855 326.423279,481.746368 332.857391,476.975311 
	C338.270844,472.961090 342.767731,467.695190 348.426971,463.806763 
	C351.032990,462.016266 353.686768,460.305115 356.347076,458.609924 
	C358.657501,457.137756 360.645355,455.517151 361.523560,452.791504 
	C362.169830,450.785767 363.732666,449.618164 365.451965,448.469360 
	C372.732941,443.604340 379.540100,438.104218 386.447571,432.757812 
	C395.776794,425.536865 404.171112,417.291992 413.471771,410.086395 
	C418.920715,405.864838 425.003174,402.220947 428.894745,396.155731 
	C430.351135,393.885864 432.857086,392.591309 435.252991,391.436951 
	C439.944611,389.176483 443.828430,386.256317 447.263611,382.100189 
	C452.012695,376.354431 458.660889,372.526917 464.780121,368.253662 
	C466.132843,367.308990 467.690186,366.669891 468.852142,365.424164 
	C477.296173,356.371094 487.041687,348.887970 497.193848,341.885193 
	C500.526215,339.586578 502.994385,336.437622 505.311707,333.154663 
	C507.056366,330.682983 509.150879,328.899963 512.724854,330.763672 
z"/>
<path fill="#D9E9FB" opacity="1.000000" stroke="none" 
	d="
M270.979248,234.869476 
	C270.460876,231.282654 271.963898,229.073761 274.803131,227.789322 
	C278.889771,225.940628 283.108032,223.401016 285.880280,220.561523 
	C290.005157,216.336700 295.802734,214.047134 298.944702,209.217758 
	C301.416718,205.418152 303.748810,202.514435 308.423737,201.551163 
	C311.280792,200.962494 312.183014,197.566910 314.306976,195.685165 
	C320.267609,190.404327 326.942657,186.022873 333.107574,181.029816 
	C337.155579,177.751312 340.440247,174.233139 343.892487,170.515060 
	C345.991791,168.254105 349.695343,167.465057 352.280090,165.021774 
	C356.759216,160.787827 362.249176,157.572617 366.463623,153.123489 
	C370.682129,148.670090 376.719299,146.509125 380.462830,142.250748 
	C385.360901,136.679001 391.842407,133.163712 396.652649,127.500427 
	C399.800934,123.793777 403.756927,119.696571 409.414368,118.895279 
	C410.316528,118.767494 411.576630,118.191330 411.908539,117.471024 
	C415.362000,109.976410 423.900879,107.538666 428.227509,100.852074 
	C429.977478,98.147568 433.676178,97.499123 436.371277,95.713318 
	C440.912842,92.704041 443.767853,88.262199 447.595276,84.979919 
	C451.446472,81.677254 455.622375,78.417046 459.742676,75.254280 
	C464.835022,71.345360 470.770599,68.865128 475.252991,63.734287 
	C479.337494,59.058842 484.174255,54.898338 488.414581,50.235291 
	C489.128815,49.449902 490.399963,48.935204 491.486511,48.767971 
	C494.868164,48.247524 496.557220,45.737629 498.899261,43.668427 
	C502.217346,40.736958 504.906189,36.414501 510.443420,35.999901 
	C511.481628,35.957577 512.071106,36.094097 512.775879,36.781296 
	C513.000000,63.354229 513.000000,89.708458 513.000000,116.531342 
	C507.386414,119.019684 504.570862,124.327362 500.349640,127.974236 
	C496.682373,131.142548 492.485687,133.618561 488.987274,136.851822 
	C480.698822,144.511978 469.669556,149.119705 463.762299,159.422943 
	C463.436707,159.990860 463.998993,159.634430 463.446198,159.770874 
	C457.269714,161.295746 454.368958,167.285660 449.257141,170.123535 
	C444.827362,172.582748 440.775574,175.353729 437.361206,179.085327 
	C428.220551,189.075317 417.277924,196.927368 406.503723,204.970947 
	C404.619476,206.377670 402.803223,207.798309 401.465424,209.759827 
	C400.902405,210.585327 400.395966,211.584442 399.551208,212.044998 
	C390.972290,216.722168 385.690887,225.637405 377.468567,230.234055 
	C371.372986,233.641769 367.436981,239.096558 362.088837,242.469727 
	C355.530365,246.606247 350.491364,252.343597 344.079895,256.424011 
	C343.077271,257.062073 342.286682,257.897797 341.625122,258.876648 
	C336.046448,267.131256 326.504822,271.026550 320.113678,278.395264 
	C319.816742,278.737610 319.193512,278.739777 318.328308,278.753876 
	C315.912384,278.040802 315.550201,276.121796 314.858673,274.458679 
	C307.357574,256.417816 294.853973,243.663086 275.990540,237.597870 
	C274.262543,237.042236 272.427185,236.646439 270.979248,234.869476 
z"/>
<path fill="#C3E1F7" opacity="1.000000" stroke="none" 
	d="
M513.000000,330.531342 
	C509.930725,330.599457 507.588593,331.372498 506.023865,334.393311 
	C502.756653,340.700714 496.360596,343.678070 491.158661,347.938293 
	C483.906006,353.877991 476.303955,359.327026 469.813110,366.281677 
	C465.901550,370.472656 460.340942,373.179535 455.646790,376.757080 
	C452.100159,379.460083 448.339050,381.761993 446.165558,385.747009 
	C444.846649,388.165222 442.641937,389.151245 440.425110,390.286194 
	C435.279297,392.920563 430.512177,395.530823 427.034729,400.861328 
	C424.506439,404.736908 419.740997,407.554321 415.729095,410.314606 
	C408.829865,415.061462 403.093811,420.951752 397.221130,426.722351 
	C394.187378,429.703369 389.601685,429.827393 386.943665,433.450134 
	C381.348236,441.076508 373.016968,445.306335 365.181244,450.106842 
	C364.625305,450.447418 363.697784,450.756805 363.613312,451.206573 
	C361.932861,460.151550 352.862457,461.162415 347.512665,466.136292 
	C343.911865,469.484161 339.467438,471.881195 336.461761,475.978973 
	C333.835327,479.559662 329.053711,480.355042 326.106842,483.863098 
	C324.808075,485.409149 322.603241,486.524017 321.021637,488.270691 
	C317.058655,492.647308 313.106781,497.157806 307.107056,498.961945 
	C302.754486,500.270782 300.617249,504.450500 297.375275,507.145416 
	C295.339355,508.837799 291.992157,509.230072 291.045532,512.645142 
	C266.312439,513.000000 241.624878,513.000000 216.468658,513.000000 
	C216.401657,507.377472 221.141388,505.919861 225.114304,504.312653 
	C227.646042,503.288452 229.499115,502.479156 230.272980,499.693665 
	C231.137283,496.582672 232.801956,494.313629 236.681686,494.934967 
	C238.685547,495.255859 240.540695,493.880737 241.361389,492.483704 
	C247.075836,482.756500 258.180267,478.961670 265.055084,470.887817 
	C270.282257,464.748993 278.733521,462.631104 282.519226,455.217712 
	C282.662994,454.936157 282.938110,454.603241 283.216309,454.526031 
	C290.840973,452.411621 294.965088,445.344421 301.468018,441.656464 
	C302.742889,440.933441 303.170319,439.638123 303.755920,438.469025 
	C304.525024,436.933624 305.659485,434.841522 306.966827,434.859955 
	C312.806793,434.942505 314.768829,430.452942 317.791107,426.895416 
	C319.441925,424.952271 321.959198,423.550232 324.345612,422.488190 
	C326.282898,421.626007 327.370605,419.545746 328.747650,418.960205 
	C334.469971,416.526978 336.534454,410.263153 341.563202,407.500366 
	C344.256378,406.020721 346.837646,405.053070 347.878998,401.825531 
	C348.200317,400.829712 349.332733,400.005280 350.249878,399.307556 
	C354.428802,396.128296 358.526367,392.705109 362.685242,389.694458 
	C367.117859,386.485626 371.826660,383.137573 376.950195,380.630798 
	C379.572693,379.347687 381.662720,376.454468 383.338684,373.865173 
	C387.024445,368.170685 391.638947,364.210480 398.078552,361.510712 
	C402.582092,359.622711 405.559235,354.789886 409.566254,351.571106 
	C414.928497,347.263702 420.160370,342.401764 425.645264,338.560303 
	C433.932159,332.756287 439.801605,324.061279 449.203308,319.768127 
	C450.734924,319.068726 451.595184,317.023193 453.055817,316.023773 
	C461.590179,310.184326 468.354858,302.268005 476.753662,296.182953 
	C480.884521,293.190094 484.400513,288.963165 488.583649,285.747803 
	C492.588806,282.669189 496.709015,279.725067 500.925232,276.944031 
	C502.501007,275.904633 503.794006,274.741760 504.875336,273.246399 
	C506.923126,270.414490 509.084137,267.689636 512.656067,266.038757 
	C513.000000,287.354218 513.000000,308.708466 513.000000,330.531342 
z"/>
<path fill="#D9E9FB" opacity="1.000000" stroke="none" 
	d="
M1.000000,450.468658 
	C5.941310,450.245178 6.478724,445.223663 9.292398,442.916443 
	C10.768695,441.705872 11.357216,439.376282 13.981419,440.445740 
	C14.864964,440.805786 15.616797,440.550720 16.066982,439.678223 
	C19.501780,433.021027 26.567451,430.708984 31.946243,426.377411 
	C35.293140,423.682159 36.917431,419.296448 41.045231,417.304291 
	C46.393017,414.723480 51.681938,410.841034 55.079990,406.840973 
	C62.151421,398.516693 73.115257,395.068054 79.009537,385.858032 
	C80.299210,383.842865 82.482063,383.363770 84.149689,382.222687 
	C92.059593,376.810059 97.259583,367.825623 107.046326,364.909454 
	C108.886574,364.361084 109.779091,362.565887 110.567177,360.876526 
	C111.606956,358.647614 112.977837,356.865784 115.781273,356.979034 
	C117.796051,357.060455 118.334213,355.305328 119.506706,354.186951 
	C125.196808,348.759613 130.567398,343.132904 137.091553,338.401154 
	C142.706970,334.328461 148.946182,330.538727 153.631393,324.702881 
	C157.712982,319.618927 163.447906,315.553467 169.646759,312.671661 
	C170.841766,312.116089 172.141617,311.618408 172.801208,310.339813 
	C175.194870,305.699707 178.658585,302.431000 183.830338,300.959473 
	C185.108917,300.595703 186.069107,299.112823 187.504089,298.071289 
	C189.627304,299.234253 189.300583,301.207153 189.490326,302.959717 
	C191.120255,318.013733 197.800476,330.692078 207.600723,341.964813 
	C210.537903,345.343292 215.343582,346.607910 217.493347,351.251190 
	C216.420639,354.978760 213.659561,357.026886 211.071579,359.016998 
	C203.692673,364.691528 196.889603,370.928253 190.436890,377.649017 
	C185.860321,382.415680 179.542831,385.183899 174.562317,389.484863 
	C165.122131,397.637115 156.053680,406.347595 146.074463,413.721130 
	C133.389801,423.093658 123.122795,435.483398 109.004921,442.976959 
	C107.670364,443.685364 106.578896,444.758301 105.577232,445.869873 
	C99.438835,452.681610 91.245544,457.150146 84.874962,463.541138 
	C77.697701,470.741364 68.243073,475.125275 61.934048,483.373535 
	C59.728458,486.257141 56.239063,488.469330 52.957432,490.386719 
	C44.466030,495.348083 37.800011,502.661804 29.373039,508.281006 
	C26.677279,509.223633 24.911222,507.844238 23.121578,506.688751 
	C12.273181,499.684357 4.787660,490.169342 1.243045,477.277100 
	C1.000000,468.312439 1.000000,459.624878 1.000000,450.468658 
z"/>
<path fill="#E0ECFC" opacity="1.000000" stroke="none" 
	d="
M490.175171,8.590599 
	C487.553741,10.595031 485.456238,12.699208 483.859528,15.280338 
	C482.328186,17.755814 480.743866,18.557213 478.429413,16.010311 
	C477.283478,14.749209 476.048737,12.348932 474.093445,13.430350 
	C471.684143,14.762879 474.187897,16.560623 474.557587,18.140152 
	C474.865082,19.454012 475.537140,21.089151 473.960846,21.660007 
	C469.434937,23.299044 468.144958,27.560596 465.874664,31.026825 
	C464.858093,32.578857 464.253937,33.580544 462.793091,31.245220 
	C461.508209,29.191219 459.655182,30.871977 459.403442,31.957279 
	C458.324707,36.607964 454.972382,37.620281 450.969482,38.240772 
	C448.876160,38.565266 446.877655,39.528740 444.851715,40.247173 
	C444.034790,40.536865 442.972290,41.442947 443.426880,41.975285 
	C446.589935,45.679379 442.083282,47.837326 441.680908,50.812347 
	C441.354187,53.227695 438.985199,53.990276 437.377930,51.757767 
	C436.398621,50.397499 436.167023,48.447948 433.974701,49.251396 
	C432.056580,49.954342 430.480560,51.363468 430.136200,53.500576 
	C429.870087,55.152180 429.652344,56.753654 428.892731,58.284512 
	C427.806885,60.472824 426.967987,62.287025 423.689270,61.275578 
	C421.890656,60.720730 418.730621,60.557911 420.144897,64.856865 
	C420.449158,65.781731 419.188202,70.299095 415.202301,69.245056 
	C414.460297,69.048843 412.971069,69.122055 412.877869,69.410507 
	C411.378662,74.051270 405.288391,75.783714 405.580475,81.404526 
	C405.039429,81.320717 404.539398,81.358818 404.481628,81.216942 
	C403.652130,79.178413 404.200104,75.570076 401.425751,75.748055 
	C399.887512,75.846741 398.130554,79.070381 397.227386,81.205025 
	C395.201965,85.992203 395.208679,86.133911 390.766937,82.517105 
	C389.976929,81.873810 389.350037,80.984741 388.241669,81.646347 
	C387.082947,82.338028 386.910522,83.483688 387.209961,84.711967 
	C387.622437,86.404022 391.221344,87.966484 389.456818,88.897232 
	C386.697632,90.352646 385.897339,93.761627 382.944122,94.450455 
	C378.599091,95.463913 375.753052,97.573120 375.858521,102.440140 
	C375.864990,102.738434 375.615356,103.306618 375.488434,103.305595 
	C368.633698,103.250420 367.202209,112.371231 359.898346,112.230110 
	C356.412811,112.162758 353.049957,114.580116 349.097382,114.725349 
	C345.777649,114.847336 345.515411,117.879044 346.887726,120.873596 
	C348.279633,123.910812 349.197693,126.766296 343.770844,126.576889 
	C340.469086,126.461639 334.686066,132.777298 334.596466,136.159149 
	C334.522003,138.970200 333.180450,138.996246 331.033966,138.552460 
	C328.130707,137.952164 325.048187,136.594376 325.602966,142.217224 
	C325.884552,145.071671 323.639008,143.595459 322.170258,142.158966 
	C320.340881,140.120758 321.264587,138.148239 321.693329,136.269913 
	C327.098419,112.592506 321.357330,91.741867 305.112274,73.995117 
	C296.662231,64.763916 285.927673,58.761135 273.676483,55.682003 
	C271.446136,55.121452 269.065247,54.887280 267.001404,52.968979 
	C267.830536,48.881542 271.294189,46.845764 272.686401,43.400520 
	C275.153290,44.693298 272.697113,48.472675 275.304321,48.348732 
	C277.786469,48.230740 278.380066,45.299923 279.041901,43.008793 
	C279.868439,40.147320 284.668243,37.683369 287.604218,38.916035 
	C290.585144,40.167595 291.131439,39.078255 291.010803,36.452351 
	C290.894165,33.913685 290.815338,31.105696 293.475677,29.861763 
	C297.034210,28.197855 298.685944,25.670437 298.165924,21.586496 
	C300.298981,21.849535 301.663055,23.238125 303.597168,23.073246 
	C305.763794,22.888544 306.823303,22.391771 307.061096,19.943968 
	C307.593903,14.459330 311.268280,12.045039 316.362213,13.581179 
	C318.198822,14.135040 319.686554,13.537317 319.746429,11.842495 
	C319.868805,8.378950 320.665283,5.753981 324.279205,4.412160 
	C325.269836,4.044348 324.134247,2.634474 324.037781,1.347084 
	C374.687561,1.000000 425.375122,1.000000 476.531342,1.000000 
	C479.799927,2.675546 483.230408,2.692841 486.008484,4.462151 
	C487.632233,5.496286 489.601013,6.095855 490.175171,8.590599 
z"/>
<path fill="#D1E6F9" opacity="1.000000" stroke="none" 
	d="
M317.518555,278.441681 
	C320.645721,277.909210 321.647369,275.205688 323.501495,273.673981 
	C327.329468,270.511719 329.680054,265.464600 335.328186,264.625427 
	C335.864563,264.545746 336.474579,263.882233 336.757324,263.337616 
	C340.747498,255.652145 348.956207,252.077194 354.108276,245.521393 
	C354.666138,244.811493 355.720123,244.245377 356.624084,244.095337 
	C361.013062,243.366867 363.513580,240.457626 365.590790,236.875534 
	C367.299164,233.929535 368.578857,230.380661 373.353485,231.562943 
	C374.277985,231.791885 375.976532,230.649673 376.692627,229.678680 
	C381.108398,223.691452 388.951324,221.145432 392.250854,214.078384 
	C392.770721,212.964844 393.856750,213.060364 394.834656,212.986633 
	C396.389618,212.869385 397.860168,212.417419 398.774872,211.134186 
	C404.474731,203.137726 413.367310,198.970123 420.556458,192.776382 
	C426.530182,187.629837 432.737518,182.686234 437.889221,176.628448 
	C440.959106,173.018631 444.814667,170.478455 449.237457,168.814331 
	C450.893860,168.191086 451.942535,167.062439 452.799194,165.532272 
	C453.515411,164.252975 454.372528,162.570084 455.565918,162.117767 
	C464.075897,158.892380 468.465088,151.212357 474.381714,145.188293 
	C475.577881,143.970398 477.133270,143.340469 478.767487,142.931015 
	C481.608765,142.219131 484.001984,141.070969 485.075928,137.982819 
	C486.070068,135.124191 489.339142,135.113724 491.424713,133.561707 
	C497.053741,129.372757 502.203156,124.753876 506.564026,119.311501 
	C508.158966,117.320976 509.930237,116.828499 512.596069,116.999771 
	C513.000000,139.687561 513.000000,162.375122 513.000000,185.531342 
	C505.350861,188.761749 499.076019,193.536285 493.978455,199.728104 
	C491.986023,202.148300 490.088226,203.403015 486.931641,204.332336 
	C482.832001,205.539322 480.146729,209.704300 477.492950,213.178848 
	C476.157959,214.926727 475.270569,216.904633 472.711670,217.039276 
	C471.251129,217.116135 470.013397,218.002640 469.461517,219.130127 
	C467.206421,223.737610 462.809631,226.141144 459.297058,229.450714 
	C458.818542,229.901550 458.492859,230.725235 457.957397,230.873184 
	C450.684021,232.882828 446.960419,239.840530 440.674255,243.218735 
	C439.679321,243.753418 438.456757,244.580658 438.143433,245.536255 
	C437.109894,248.688324 434.946869,249.406967 431.999542,250.598969 
	C428.824280,251.883163 426.730286,255.855560 424.184692,258.673340 
	C423.412445,259.528107 422.807983,261.099731 421.955627,261.230774 
	C411.497253,262.839050 407.608856,273.093964 399.631256,278.002930 
	C388.943604,284.579529 381.210602,295.108185 370.510620,301.448639 
	C364.822479,304.819305 362.955566,310.862091 357.564941,314.250702 
	C348.746857,319.793793 340.365631,326.181824 332.474945,332.994965 
	C327.596710,337.207031 322.886841,341.521881 317.518219,345.136108 
	C315.288879,346.636902 313.129456,348.100861 310.207397,348.966187 
	C308.534241,346.799988 309.609558,344.766174 310.433472,342.822144 
	C315.692200,330.414520 317.860596,317.305298 319.263031,304.035553 
	C319.969635,297.349731 318.698456,290.772034 317.635864,284.204742 
	C317.345276,282.408905 316.692017,280.647339 317.518555,278.441681 
z"/>
<path fill="#D1E6F9" opacity="1.000000" stroke="none" 
	d="
M28.932156,508.476929 
	C29.684868,505.788422 31.165752,503.786072 33.304317,502.997559 
	C36.408585,501.852997 38.752907,499.898560 40.962944,497.641724 
	C46.610210,491.874847 54.205708,488.696655 60.122604,483.447632 
	C63.892097,480.103638 66.623138,475.546997 71.171783,472.904877 
	C78.042389,468.914062 82.802193,462.393402 89.203606,457.842987 
	C91.188850,456.431763 92.605019,454.236938 95.382042,453.908691 
	C98.916115,453.490967 99.222313,449.653259 101.233109,447.593628 
	C107.007622,441.678864 115.034828,439.098969 120.772888,433.219574 
	C125.030067,428.857544 130.025360,425.246368 134.208984,420.744598 
	C137.330383,417.385834 142.044617,416.430481 145.454346,413.014435 
	C154.990173,403.460876 165.857300,395.331116 175.902588,386.289124 
	C178.385025,384.054626 181.859985,382.091492 184.956680,380.138336 
	C189.649033,377.178741 192.955795,373.091949 196.385086,368.873230 
	C198.507965,366.261688 201.830490,364.538025 204.548050,362.339569 
	C208.796692,358.902710 212.918091,355.301392 217.527802,351.699615 
	C218.883148,351.139099 219.902328,351.217163 220.781982,351.718781 
	C229.476562,356.676544 239.259750,359.212219 248.038483,363.959015 
	C255.900452,368.209991 259.904755,381.554932 255.515503,389.819336 
	C249.988937,392.274567 246.194000,396.464966 241.675095,399.600952 
	C234.817978,404.359619 229.974503,411.575623 222.118118,415.079468 
	C220.440109,415.827881 218.918015,417.548279 217.966064,419.192535 
	C214.206894,425.685699 208.131866,428.706970 201.569534,431.560242 
	C198.419235,432.929932 196.738861,436.791168 193.692810,438.916229 
	C189.149933,442.085480 184.766495,445.096069 181.924286,450.598236 
	C180.596573,453.168579 175.749542,455.426147 172.388229,457.561310 
	C165.655014,461.838409 159.802872,466.940430 154.607941,472.892761 
	C151.925537,475.966278 148.361511,477.997467 144.886032,479.664276 
	C140.714676,481.664825 137.545044,484.173401 134.898224,487.957611 
	C130.839752,493.760071 124.780647,497.532104 118.914246,501.182953 
	C116.045868,502.968048 113.665184,504.506897 112.904778,507.855988 
	C112.412682,510.023346 109.917572,510.443024 109.058090,512.659851 
	C85.312439,513.000000 61.624878,513.000000 37.468658,513.000000 
	C34.584118,511.061798 30.645334,512.086731 28.932156,508.476929 
z"/>
<path fill="#000000" opacity="1.000000" stroke="none" 
	d="
M490.467926,8.978860 
	C487.114899,5.497948 482.767792,4.574220 478.759674,3.095202 
	C477.789429,2.737170 476.950958,2.509954 476.694641,1.317661 
	C488.098358,1.000000 499.198303,1.098471 510.293884,0.922853 
	C512.721130,0.884436 513.093994,1.493104 513.063843,3.762311 
	C512.920837,14.527485 513.000000,25.295610 513.000000,36.531342 
	C512.195190,38.095085 511.757263,36.947468 511.002808,36.350269 
	C507.554810,24.486002 500.999268,15.401017 490.467926,8.978860 
z"/>
<path fill="#000000" opacity="1.000000" stroke="none" 
	d="
M477.468658,513.000000 
	C475.892761,511.686432 477.143982,511.304871 477.924988,511.063202 
	C495.047852,505.764709 505.977753,494.375061 511.265015,477.368195 
	C511.390045,476.965973 511.988892,476.711090 512.683350,476.693726 
	C513.000000,488.098358 512.901550,499.198303 513.077148,510.293884 
	C513.115540,512.721130 512.506897,513.094055 510.237671,513.063843 
	C499.472504,512.920837 488.704376,513.000000 477.468658,513.000000 
z"/>
<path fill="#000000" opacity="1.000000" stroke="none" 
	d="
M28.598198,508.058014 
	C31.226194,510.788269 35.342098,509.702332 37.303783,512.686768 
	C25.901632,513.000000 14.801706,512.901550 3.706118,513.077148 
	C1.278880,513.115601 0.905951,512.506897 0.936097,510.237671 
	C1.079111,499.472504 1.000000,488.704376 1.000000,477.468658 
	C4.167263,476.181396 3.137007,479.246674 3.500189,480.251648 
	C8.054317,492.853455 16.415831,501.937500 28.598198,508.058014 
z"/>
<path fill="#000000" opacity="1.000000" stroke="none" 
	d="
M36.531342,1.000000 
	C38.119972,2.306243 36.855072,2.689943 36.089729,2.924798 
	C18.927311,8.191278 8.021119,19.613752 2.726243,36.625652 
	C2.601277,37.027157 2.010462,37.283661 1.318466,37.303902 
	C1.000000,25.901634 1.098466,14.801709 0.922855,3.706122 
	C0.884440,1.278905 1.493075,0.905950 3.762307,0.936097 
	C14.527482,1.079112 25.295609,1.000000 36.531342,1.000000 
z"/>
<path fill="#36015E" opacity="1.000000" stroke="none" 
	d="
M266.348541,52.640869 
	C296.252625,58.522621 315.581238,75.490166 323.325745,104.784744 
	C326.545319,116.963112 325.503662,129.160950 321.895691,141.567169 
	C317.255707,153.945786 310.291809,164.287903 300.317688,172.474426 
	C289.396423,181.438293 276.828369,186.467560 262.402283,188.042480 
	C261.014679,188.916824 259.934235,189.127350 258.372925,188.483521 
	C256.929810,188.205856 255.858719,188.150345 254.392456,188.178482 
	C219.752136,186.250916 197.231583,162.858658 190.588165,138.567261 
	C188.734329,131.788742 187.792435,124.930351 187.919678,117.454254 
	C190.655304,80.889771 215.951004,59.014320 242.089172,53.519855 
	C249.968430,51.863571 257.899658,51.394760 266.348541,52.640869 
z"/>
<path fill="#36015E" opacity="1.000000" stroke="none" 
	d="
M255.217194,390.422485 
	C256.852478,383.323029 255.673294,376.900330 253.226028,370.654572 
	C251.775467,366.952515 248.357727,365.423065 245.001297,363.966278 
	C236.075943,360.092407 226.803864,356.975403 218.189636,351.658447 
	C198.815445,339.161499 189.633575,321.164581 187.913666,298.441559 
	C188.847488,273.132812 198.769913,253.325928 221.113403,241.090454 
	C236.431305,232.702286 252.946274,231.173370 270.412262,234.483856 
	C293.902954,240.716019 309.707611,254.699966 317.457764,277.867889 
	C324.257874,302.488373 319.192474,325.598511 309.875610,348.618652 
	C303.147095,362.427185 296.522064,375.878113 288.047852,388.335114 
	C274.890808,407.675842 258.008759,423.627289 241.490891,439.909637 
	C236.122482,445.201538 230.440552,450.175415 224.320221,454.887238 
	C237.580078,434.867798 251.045258,415.072083 255.217194,390.422485 
z"/>
<path fill="#E0ECFC" opacity="1.000000" stroke="none" 
	d="
M258.002869,188.626373 
	C259.068237,188.181641 260.135590,188.101913 261.600769,188.083923 
	C261.846741,189.816040 262.547729,192.199570 260.166321,192.489365 
	C257.907898,192.764160 258.110626,190.567520 258.002869,188.626373 
z"/>
</svg>